<svg width="16" height="16" viewBox="0 0 16 16" fill="none" xmlns="http://www.w3.org/2000/svg">
<path d="M12.1663 2.00008V2.50008H12.6663H13.333C13.7902 2.50008 14.1663 2.87622 14.1663 3.33341V14.0001C14.1663 14.4573 13.7902 14.8334 13.333 14.8334H2.66634C2.20915 14.8334 1.83301 14.4573 1.83301 14.0001V3.33341C1.83301 2.87622 2.20915 2.50008 2.66634 2.50008H3.33301H3.83301V2.00008V1.16675H4.16634V2.00008V2.50008H4.66634H11.333H11.833V2.00008V1.16675H12.1663V2.00008ZM13.333 14.5001H13.833V14.0001V5.33341V4.83341H13.333H2.66634H2.16634V5.33341V14.0001V14.5001H2.66634H13.333Z" fill="#5C3939" stroke="#555555"/>
</svg>
