<svg width="17" height="16" viewBox="0 0 17 16" fill="none" xmlns="http://www.w3.org/2000/svg">
<path d="M12.4163 2.00008V2.50008H12.9163H13.583C14.0402 2.50008 14.4163 2.87622 14.4163 3.33341V14.0001C14.4163 14.4573 14.0402 14.8334 13.583 14.8334H2.91634C2.45915 14.8334 2.08301 14.4573 2.08301 14.0001V3.33341C2.08301 2.87622 2.45915 2.50008 2.91634 2.50008H3.58301H4.08301V2.00008V1.16675H4.41634V2.00008V2.50008H4.91634H11.583H12.083V2.00008V1.16675H12.4163V2.00008ZM13.583 14.5001H14.083V14.0001V6.66675V6.16675H13.583H2.91634H2.41634V6.66675V14.0001V14.5001H2.91634H13.583ZM13.583 5.83341H14.083V5.33341V3.33341V2.83341H13.583H2.91634H2.41634V3.33341V5.33341V5.83341H2.91634H13.583Z" fill="#5C3939" stroke="#555555"/>
</svg>
